<svg width="24.000000" height="24.000000" viewBox="0 0 24 24" fill="none" xmlns="http://www.w3.org/2000/svg" xmlns:xlink="http://www.w3.org/1999/xlink">
	<desc>
			Created with Pixso.
	</desc>
	<defs>
		<clipPath id="clip1_5269">
			<rect rx="-0.500000" width="23.000000" height="23.000000" transform="translate(0.500000 0.500000)" fill="white" fill-opacity="0"/>
		</clipPath>
	</defs>
	<g clip-path="url(#clip1_5269)">
		<path d="M4.89 14.2L4.89 20.25C4.89 21.91 6.06 23 7.85 23L19.04 23C20.82 23 22 21.91 22 20.25L22 3.74C22 2.09 20.82 1 19.04 1L7.85 1C6.06 1 4.89 2.09 4.89 3.74L4.89 9.8L6.84 9.8L6.84 4.05C6.84 3.3 7.3 2.87 8.11 2.87L18.77 2.87C19.59 2.87 20.04 3.3 20.04 4.05L20.04 19.94C20.04 20.69 19.59 21.12 18.77 21.12L8.11 21.12C7.3 21.12 6.84 20.69 6.84 19.94L6.84 14.2L4.89 14.2ZM2.83 12.79L9.38 12.79L11.3 12.7L9.33 14.36L8.79 14.9C8.64 15.05 8.54 15.26 8.54 15.49C8.54 15.94 8.88 16.26 9.34 16.26C9.57 16.26 9.78 16.17 9.94 16.02L13.46 12.65C13.67 12.44 13.79 12.21 13.79 11.99C13.79 11.77 13.67 11.53 13.46 11.33L9.94 7.96C9.78 7.81 9.57 7.72 9.34 7.72C8.88 7.72 8.54 8.04 8.54 8.49C8.54 8.72 8.64 8.93 8.79 9.08L9.33 9.62L11.3 11.28L9.38 11.19L2.83 11.19C2.32 11.19 2 11.56 2 11.99C2 12.42 2.32 12.79 2.83 12.79Z" fill="#F56B6C" fill-opacity="1.000000" fill-rule="nonzero"/>
	</g>
</svg>
